<?xml version="1.0" standalone="no"?><!DOCTYPE svg PUBLIC "-//W3C//DTD SVG 1.1//EN" "http://www.w3.org/Graphics/SVG/1.1/DTD/svg11.dtd"><svg t="1626888343766" class="icon" viewBox="0 0 1024 1024" version="1.1" xmlns="http://www.w3.org/2000/svg" p-id="848" xmlns:xlink="http://www.w3.org/1999/xlink" width="32" height="32"><defs><style type="text/css">@font-face { font-family: feedback-iconfont; src: url("//at.alicdn.com/t/font_1031158_1uhr8ri0pk5.eot?#iefix") format("embedded-opentype"), url("//at.alicdn.com/t/font_1031158_1uhr8ri0pk5.woff2") format("woff2"), url("//at.alicdn.com/t/font_1031158_1uhr8ri0pk5.woff") format("woff"), url("//at.alicdn.com/t/font_1031158_1uhr8ri0pk5.ttf") format("truetype"), url("//at.alicdn.com/t/font_1031158_1uhr8ri0pk5.svg#iconfont") format("svg"); }
</style></defs><path d="M849.4 6.3H175.1C82 6.3 6.5 81.8 6.5 174.9v674.3c0 93.1 75.5 168.6 168.6 168.6h674.3c93.1 0 168.6-75.5 168.6-168.6V174.9c-0.1-93.1-75.5-168.6-168.6-168.6z m23.7 247.5v44h-42.8L293.7 849.7H134.8V297.2l-39.7-0.6v-42.8H254v401.1l397.3-401.1h221.8zM767.5 724.3c9.6 11.4 24.4 30.4 33.4 43.3l-19.6 19c-5.7-9.3-13.8-21.4-22-31.9v96.9h-25.6v-94.5c-9.3 19.3-19.3 36.1-31 51.5l-19.9-21.1c19.3-22 36.4-50.3 47-81.6h-35.2v-27.7h39.1V581l25.6 1.2v96h30.4v27.7h-30.4v25.6l8.2-7.2zM709.4 668c-4.8-16.9-13.5-45.2-18.4-58.1l21.7-8.4c4.8 13.2 14.8 43.3 18.7 59.3l-22 7.2z m92.5-60.2c-6.3 18.4-15.4 46.1-21.1 60.5l-20.5-8.4c5.7-16.9 15.1-42.7 19.9-58.7l21.7 6.6z m154.4 68v21.7H794.9v-21.7h61.4v-14.1h-50.6v-21.4h50.6v-14.5h-54.2v-22.3h54.2v-23.8l26.2 1.2v22.6h63.2v22.3h-63.2v14.5h56.6v21.4h-56.6v14.1h73.8z m-151.7 36.4h130v106.3c0 23.2-8.1 27.4-31 29.8l-16.6 1.8-7.8-22.9 14.8-1.8c12.3-1.5 14.8-3.6 14.8-12.9v-5.4h-78.3v42.4h-25.9V712.2z m25.9 22.6v13.8h78.3v-13.8h-78.3z m78.2 49.7v-13.8h-78.3v13.8h78.3z" p-id="849"></path></svg>